<mxfile host="Electron" modified="2024-04-11T10:26:32.201Z" agent="Mozilla/5.0 (Windows NT 10.0; Win64; x64) AppleWebKit/537.36 (KHTML, like Gecko) draw.io/24.1.0 Chrome/120.0.6099.109 Electron/28.1.0 Safari/537.36" etag="3iTuTYr7LFeWVugFcLvp" version="24.1.0" type="device">
  <diagram name="Pagina-1" id="eZlz9svo3BCuJOLBlhgw">
    <mxGraphModel dx="1050" dy="621" grid="1" gridSize="10" guides="1" tooltips="1" connect="1" arrows="1" fold="1" page="1" pageScale="1" pageWidth="827" pageHeight="1169" math="0" shadow="0">
      <root>
        <mxCell id="0" />
        <mxCell id="1" parent="0" />
        <mxCell id="yUyOMXH7IsfFj7a0Xzgd-1" value="Pubblicazione" style="whiteSpace=wrap;html=1;aspect=fixed;" parent="1" vertex="1">
          <mxGeometry x="225" y="380" width="80" height="80" as="geometry" />
        </mxCell>
        <mxCell id="yUyOMXH7IsfFj7a0Xzgd-3" value="Autore" style="whiteSpace=wrap;html=1;aspect=fixed;direction=south;" parent="1" vertex="1">
          <mxGeometry x="225" y="720" width="80" height="80" as="geometry" />
        </mxCell>
        <mxCell id="yUyOMXH7IsfFj7a0Xzgd-4" value="scrive" style="rhombus;whiteSpace=wrap;html=1;" parent="1" vertex="1">
          <mxGeometry x="225" y="550" width="80" height="80" as="geometry" />
        </mxCell>
        <mxCell id="yUyOMXH7IsfFj7a0Xzgd-7" value="" style="endArrow=none;html=1;rounded=0;exitX=0.5;exitY=0;exitDx=0;exitDy=0;entryX=0.5;entryY=1;entryDx=0;entryDy=0;" parent="1" source="yUyOMXH7IsfFj7a0Xzgd-4" target="yUyOMXH7IsfFj7a0Xzgd-1" edge="1">
          <mxGeometry width="50" height="50" relative="1" as="geometry">
            <mxPoint x="485" y="620" as="sourcePoint" />
            <mxPoint x="535" y="570" as="targetPoint" />
          </mxGeometry>
        </mxCell>
        <mxCell id="yUyOMXH7IsfFj7a0Xzgd-8" value="1,n" style="edgeLabel;html=1;align=center;verticalAlign=middle;resizable=0;points=[];" parent="yUyOMXH7IsfFj7a0Xzgd-7" vertex="1" connectable="0">
          <mxGeometry x="0.1333" y="1" relative="1" as="geometry">
            <mxPoint as="offset" />
          </mxGeometry>
        </mxCell>
        <mxCell id="yUyOMXH7IsfFj7a0Xzgd-28" value="" style="endArrow=none;html=1;rounded=0;exitX=1;exitY=0.5;exitDx=0;exitDy=0;" parent="1" source="yUyOMXH7IsfFj7a0Xzgd-3" target="yUyOMXH7IsfFj7a0Xzgd-29" edge="1">
          <mxGeometry width="50" height="50" relative="1" as="geometry">
            <mxPoint x="780" y="765" as="sourcePoint" />
            <mxPoint x="870" y="715" as="targetPoint" />
          </mxGeometry>
        </mxCell>
        <mxCell id="yUyOMXH7IsfFj7a0Xzgd-29" value="biografia" style="ellipse;whiteSpace=wrap;html=1;" parent="1" vertex="1">
          <mxGeometry x="325" y="865" width="55" height="20" as="geometry" />
        </mxCell>
        <mxCell id="yUyOMXH7IsfFj7a0Xzgd-30" value="n&lt;span style=&quot;background-color: initial;&quot;&gt;ome&lt;/span&gt;" style="ellipse;whiteSpace=wrap;html=1;" parent="1" vertex="1">
          <mxGeometry x="155" y="865" width="55" height="15" as="geometry" />
        </mxCell>
        <mxCell id="yUyOMXH7IsfFj7a0Xzgd-31" value="" style="endArrow=none;html=1;rounded=0;exitX=1;exitY=0.5;exitDx=0;exitDy=0;" parent="1" source="yUyOMXH7IsfFj7a0Xzgd-3" target="yUyOMXH7IsfFj7a0Xzgd-30" edge="1">
          <mxGeometry width="50" height="50" relative="1" as="geometry">
            <mxPoint x="780" y="765" as="sourcePoint" />
            <mxPoint x="870" y="785" as="targetPoint" />
          </mxGeometry>
        </mxCell>
        <mxCell id="yUyOMXH7IsfFj7a0Xzgd-32" value="" style="endArrow=none;html=1;rounded=0;exitX=1;exitY=0.5;exitDx=0;exitDy=0;" parent="1" source="yUyOMXH7IsfFj7a0Xzgd-3" target="yUyOMXH7IsfFj7a0Xzgd-33" edge="1">
          <mxGeometry width="50" height="50" relative="1" as="geometry">
            <mxPoint x="780" y="765" as="sourcePoint" />
            <mxPoint x="820" y="845" as="targetPoint" />
          </mxGeometry>
        </mxCell>
        <mxCell id="yUyOMXH7IsfFj7a0Xzgd-33" value="cognome" style="ellipse;whiteSpace=wrap;html=1;" parent="1" vertex="1">
          <mxGeometry x="235" y="865" width="60" height="20" as="geometry" />
        </mxCell>
        <mxCell id="yUyOMXH7IsfFj7a0Xzgd-37" value="&lt;i&gt;&lt;u&gt;ISBN-ISSN&lt;/u&gt;&lt;/i&gt;" style="ellipse;whiteSpace=wrap;html=1;" parent="1" vertex="1">
          <mxGeometry x="115" y="407.5" width="72.5" height="25" as="geometry" />
        </mxCell>
        <mxCell id="yUyOMXH7IsfFj7a0Xzgd-38" value="titolo" style="ellipse;whiteSpace=wrap;html=1;" parent="1" vertex="1">
          <mxGeometry x="120.87" y="375" width="58.25" height="20" as="geometry" />
        </mxCell>
        <mxCell id="yUyOMXH7IsfFj7a0Xzgd-43" value="" style="endArrow=none;html=1;rounded=0;" parent="1" source="yUyOMXH7IsfFj7a0Xzgd-1" target="yUyOMXH7IsfFj7a0Xzgd-38" edge="1">
          <mxGeometry width="50" height="50" relative="1" as="geometry">
            <mxPoint x="245" y="450" as="sourcePoint" />
            <mxPoint x="295" y="400" as="targetPoint" />
          </mxGeometry>
        </mxCell>
        <mxCell id="yUyOMXH7IsfFj7a0Xzgd-44" value="" style="endArrow=none;html=1;rounded=0;" parent="1" source="yUyOMXH7IsfFj7a0Xzgd-37" target="yUyOMXH7IsfFj7a0Xzgd-1" edge="1">
          <mxGeometry width="50" height="50" relative="1" as="geometry">
            <mxPoint x="245" y="460" as="sourcePoint" />
            <mxPoint x="295" y="410" as="targetPoint" />
          </mxGeometry>
        </mxCell>
        <mxCell id="yUyOMXH7IsfFj7a0Xzgd-45" value="" style="endArrow=none;html=1;rounded=0;exitX=0;exitY=0.5;exitDx=0;exitDy=0;entryX=0.5;entryY=1;entryDx=0;entryDy=0;" parent="1" source="yUyOMXH7IsfFj7a0Xzgd-3" target="yUyOMXH7IsfFj7a0Xzgd-4" edge="1">
          <mxGeometry width="50" height="50" relative="1" as="geometry">
            <mxPoint x="365" y="700" as="sourcePoint" />
            <mxPoint x="415" y="650" as="targetPoint" />
          </mxGeometry>
        </mxCell>
        <mxCell id="yUyOMXH7IsfFj7a0Xzgd-46" value="1,n" style="edgeLabel;html=1;align=center;verticalAlign=middle;resizable=0;points=[];" parent="yUyOMXH7IsfFj7a0Xzgd-45" vertex="1" connectable="0">
          <mxGeometry x="0.04" y="-1" relative="1" as="geometry">
            <mxPoint x="-1" as="offset" />
          </mxGeometry>
        </mxCell>
        <mxCell id="yUyOMXH7IsfFj7a0Xzgd-51" value="" style="endArrow=none;html=1;rounded=0;" parent="1" source="yUyOMXH7IsfFj7a0Xzgd-1" target="yUyOMXH7IsfFj7a0Xzgd-52" edge="1">
          <mxGeometry width="50" height="50" relative="1" as="geometry">
            <mxPoint x="505" y="620" as="sourcePoint" />
            <mxPoint x="525" y="640" as="targetPoint" />
          </mxGeometry>
        </mxCell>
        <mxCell id="yUyOMXH7IsfFj7a0Xzgd-56" value="1,1" style="edgeLabel;html=1;align=center;verticalAlign=middle;resizable=0;points=[];" parent="yUyOMXH7IsfFj7a0Xzgd-51" vertex="1" connectable="0">
          <mxGeometry x="-0.2779" y="1" relative="1" as="geometry">
            <mxPoint as="offset" />
          </mxGeometry>
        </mxCell>
        <mxCell id="yUyOMXH7IsfFj7a0Xzgd-52" value="pubblica" style="rhombus;whiteSpace=wrap;html=1;" parent="1" vertex="1">
          <mxGeometry x="425" y="277.5" width="90" height="35" as="geometry" />
        </mxCell>
        <mxCell id="yUyOMXH7IsfFj7a0Xzgd-53" value="Editore" style="whiteSpace=wrap;html=1;aspect=fixed;" parent="1" vertex="1">
          <mxGeometry x="430" y="130" width="80" height="80" as="geometry" />
        </mxCell>
        <mxCell id="yUyOMXH7IsfFj7a0Xzgd-54" value="" style="endArrow=none;html=1;rounded=0;" parent="1" source="yUyOMXH7IsfFj7a0Xzgd-52" target="yUyOMXH7IsfFj7a0Xzgd-53" edge="1">
          <mxGeometry width="50" height="50" relative="1" as="geometry">
            <mxPoint x="685.5" y="415" as="sourcePoint" />
            <mxPoint x="735.5" y="365" as="targetPoint" />
          </mxGeometry>
        </mxCell>
        <mxCell id="yUyOMXH7IsfFj7a0Xzgd-55" value="1,n" style="edgeLabel;html=1;align=center;verticalAlign=middle;resizable=0;points=[];" parent="yUyOMXH7IsfFj7a0Xzgd-54" vertex="1" connectable="0">
          <mxGeometry x="-0.3435" y="-2" relative="1" as="geometry">
            <mxPoint as="offset" />
          </mxGeometry>
        </mxCell>
        <mxCell id="yUyOMXH7IsfFj7a0Xzgd-57" value="data&lt;span style=&quot;background-color: initial;&quot;&gt;Pubblicazione&lt;/span&gt;" style="ellipse;whiteSpace=wrap;html=1;" parent="1" vertex="1">
          <mxGeometry x="95" y="490" width="120" height="30" as="geometry" />
        </mxCell>
        <mxCell id="yUyOMXH7IsfFj7a0Xzgd-58" value="" style="endArrow=none;html=1;rounded=0;" parent="1" source="yUyOMXH7IsfFj7a0Xzgd-1" target="yUyOMXH7IsfFj7a0Xzgd-57" edge="1">
          <mxGeometry width="50" height="50" relative="1" as="geometry">
            <mxPoint x="291" y="200" as="sourcePoint" />
            <mxPoint x="341" y="150" as="targetPoint" />
          </mxGeometry>
        </mxCell>
        <mxCell id="yUyOMXH7IsfFj7a0Xzgd-60" value="&lt;i&gt;&lt;u&gt;nome&lt;/u&gt;&lt;/i&gt;" style="ellipse;whiteSpace=wrap;html=1;" parent="1" vertex="1">
          <mxGeometry x="395" y="85" width="60" height="20" as="geometry" />
        </mxCell>
        <mxCell id="yUyOMXH7IsfFj7a0Xzgd-61" value="&lt;i&gt;&lt;u&gt;sede&lt;/u&gt;&lt;/i&gt;" style="ellipse;whiteSpace=wrap;html=1;" parent="1" vertex="1">
          <mxGeometry x="469.5" y="85" width="50" height="20" as="geometry" />
        </mxCell>
        <mxCell id="yUyOMXH7IsfFj7a0Xzgd-63" value="" style="endArrow=none;html=1;rounded=0;" parent="1" source="yUyOMXH7IsfFj7a0Xzgd-53" target="yUyOMXH7IsfFj7a0Xzgd-60" edge="1">
          <mxGeometry width="50" height="50" relative="1" as="geometry">
            <mxPoint x="809.5" y="155" as="sourcePoint" />
            <mxPoint x="435" y="105" as="targetPoint" />
          </mxGeometry>
        </mxCell>
        <mxCell id="yUyOMXH7IsfFj7a0Xzgd-64" value="" style="endArrow=none;html=1;rounded=0;" parent="1" source="yUyOMXH7IsfFj7a0Xzgd-53" target="yUyOMXH7IsfFj7a0Xzgd-61" edge="1">
          <mxGeometry width="50" height="50" relative="1" as="geometry">
            <mxPoint x="809.5" y="185" as="sourcePoint" />
            <mxPoint x="859.5" y="135" as="targetPoint" />
          </mxGeometry>
        </mxCell>
        <mxCell id="znJoUbE5T9GirrZoyCfJ-2" value="" style="endArrow=none;html=1;rounded=0;" edge="1" parent="1" source="znJoUbE5T9GirrZoyCfJ-3" target="yUyOMXH7IsfFj7a0Xzgd-1">
          <mxGeometry width="50" height="50" relative="1" as="geometry">
            <mxPoint x="95" y="480" as="sourcePoint" />
            <mxPoint x="105" y="490" as="targetPoint" />
          </mxGeometry>
        </mxCell>
        <mxCell id="znJoUbE5T9GirrZoyCfJ-47" value="1,n" style="edgeLabel;html=1;align=center;verticalAlign=middle;resizable=0;points=[];" vertex="1" connectable="0" parent="znJoUbE5T9GirrZoyCfJ-2">
          <mxGeometry x="-0.1631" y="-1" relative="1" as="geometry">
            <mxPoint as="offset" />
          </mxGeometry>
        </mxCell>
        <mxCell id="znJoUbE5T9GirrZoyCfJ-3" value="tag" style="rhombus;whiteSpace=wrap;html=1;" vertex="1" parent="1">
          <mxGeometry x="187.5" y="272.5" width="80" height="35" as="geometry" />
        </mxCell>
        <mxCell id="znJoUbE5T9GirrZoyCfJ-4" value="PaoleChiave" style="whiteSpace=wrap;html=1;aspect=fixed;" vertex="1" parent="1">
          <mxGeometry x="187.5" y="125" width="80" height="80" as="geometry" />
        </mxCell>
        <mxCell id="znJoUbE5T9GirrZoyCfJ-5" value="" style="endArrow=none;html=1;rounded=0;" edge="1" parent="1" source="znJoUbE5T9GirrZoyCfJ-4" target="znJoUbE5T9GirrZoyCfJ-3">
          <mxGeometry width="50" height="50" relative="1" as="geometry">
            <mxPoint x="-142.5" y="600" as="sourcePoint" />
            <mxPoint x="-92.5" y="550" as="targetPoint" />
          </mxGeometry>
        </mxCell>
        <mxCell id="znJoUbE5T9GirrZoyCfJ-48" value="1,n" style="edgeLabel;html=1;align=center;verticalAlign=middle;resizable=0;points=[];" vertex="1" connectable="0" parent="znJoUbE5T9GirrZoyCfJ-5">
          <mxGeometry x="0.1901" relative="1" as="geometry">
            <mxPoint x="1" as="offset" />
          </mxGeometry>
        </mxCell>
        <mxCell id="znJoUbE5T9GirrZoyCfJ-6" value="tag" style="ellipse;whiteSpace=wrap;html=1;" vertex="1" parent="1">
          <mxGeometry x="202.5" y="80" width="50" height="25" as="geometry" />
        </mxCell>
        <mxCell id="znJoUbE5T9GirrZoyCfJ-7" value="" style="endArrow=none;html=1;rounded=0;" edge="1" parent="1" source="znJoUbE5T9GirrZoyCfJ-6" target="znJoUbE5T9GirrZoyCfJ-4">
          <mxGeometry width="50" height="50" relative="1" as="geometry">
            <mxPoint x="-262.5" y="670" as="sourcePoint" />
            <mxPoint x="-212.5" y="620" as="targetPoint" />
          </mxGeometry>
        </mxCell>
        <mxCell id="znJoUbE5T9GirrZoyCfJ-8" value="" style="endArrow=none;html=1;rounded=0;" edge="1" parent="1" source="znJoUbE5T9GirrZoyCfJ-9" target="yUyOMXH7IsfFj7a0Xzgd-1">
          <mxGeometry width="50" height="50" relative="1" as="geometry">
            <mxPoint x="80" y="575" as="sourcePoint" />
            <mxPoint x="210" y="527" as="targetPoint" />
          </mxGeometry>
        </mxCell>
        <mxCell id="znJoUbE5T9GirrZoyCfJ-49" value="1,n" style="edgeLabel;html=1;align=center;verticalAlign=middle;resizable=0;points=[];" vertex="1" connectable="0" parent="znJoUbE5T9GirrZoyCfJ-8">
          <mxGeometry x="-0.1633" y="-2" relative="1" as="geometry">
            <mxPoint as="offset" />
          </mxGeometry>
        </mxCell>
        <mxCell id="znJoUbE5T9GirrZoyCfJ-9" value="genere" style="rhombus;whiteSpace=wrap;html=1;" vertex="1" parent="1">
          <mxGeometry x="90" y="272.5" width="80" height="35" as="geometry" />
        </mxCell>
        <mxCell id="znJoUbE5T9GirrZoyCfJ-10" value="Categoria" style="whiteSpace=wrap;html=1;aspect=fixed;" vertex="1" parent="1">
          <mxGeometry x="90" y="125" width="80" height="80" as="geometry" />
        </mxCell>
        <mxCell id="znJoUbE5T9GirrZoyCfJ-11" value="nome" style="ellipse;whiteSpace=wrap;html=1;" vertex="1" parent="1">
          <mxGeometry x="95" y="80" width="70" height="25" as="geometry" />
        </mxCell>
        <mxCell id="znJoUbE5T9GirrZoyCfJ-12" value="" style="endArrow=none;html=1;rounded=0;" edge="1" parent="1" source="znJoUbE5T9GirrZoyCfJ-11" target="znJoUbE5T9GirrZoyCfJ-10">
          <mxGeometry width="50" height="50" relative="1" as="geometry">
            <mxPoint x="-495" y="765" as="sourcePoint" />
            <mxPoint x="-445" y="715" as="targetPoint" />
          </mxGeometry>
        </mxCell>
        <mxCell id="znJoUbE5T9GirrZoyCfJ-13" value="" style="endArrow=none;html=1;rounded=0;" edge="1" parent="1" source="znJoUbE5T9GirrZoyCfJ-10" target="znJoUbE5T9GirrZoyCfJ-9">
          <mxGeometry width="50" height="50" relative="1" as="geometry">
            <mxPoint x="-290" y="740" as="sourcePoint" />
            <mxPoint x="-240" y="690" as="targetPoint" />
          </mxGeometry>
        </mxCell>
        <mxCell id="znJoUbE5T9GirrZoyCfJ-50" value="1,n" style="edgeLabel;html=1;align=center;verticalAlign=middle;resizable=0;points=[];" vertex="1" connectable="0" parent="znJoUbE5T9GirrZoyCfJ-13">
          <mxGeometry x="-0.117" y="-2" relative="1" as="geometry">
            <mxPoint as="offset" />
          </mxGeometry>
        </mxCell>
        <mxCell id="znJoUbE5T9GirrZoyCfJ-14" value="copia" style="rhombus;whiteSpace=wrap;html=1;" vertex="1" parent="1">
          <mxGeometry x="380" y="395" width="80" height="50" as="geometry" />
        </mxCell>
        <mxCell id="znJoUbE5T9GirrZoyCfJ-16" value="Volume" style="rounded=0;whiteSpace=wrap;html=1;" vertex="1" parent="1">
          <mxGeometry x="539" y="390" width="90" height="60" as="geometry" />
        </mxCell>
        <mxCell id="znJoUbE5T9GirrZoyCfJ-17" value="" style="endArrow=none;html=1;rounded=0;" edge="1" parent="1" source="znJoUbE5T9GirrZoyCfJ-14" target="yUyOMXH7IsfFj7a0Xzgd-1">
          <mxGeometry width="50" height="50" relative="1" as="geometry">
            <mxPoint x="495" y="570" as="sourcePoint" />
            <mxPoint x="545" y="520" as="targetPoint" />
          </mxGeometry>
        </mxCell>
        <mxCell id="znJoUbE5T9GirrZoyCfJ-51" value="1,n" style="edgeLabel;html=1;align=center;verticalAlign=middle;resizable=0;points=[];" vertex="1" connectable="0" parent="znJoUbE5T9GirrZoyCfJ-17">
          <mxGeometry x="-0.0656" y="-2" relative="1" as="geometry">
            <mxPoint as="offset" />
          </mxGeometry>
        </mxCell>
        <mxCell id="znJoUbE5T9GirrZoyCfJ-18" value="" style="endArrow=none;html=1;rounded=0;" edge="1" parent="1" source="znJoUbE5T9GirrZoyCfJ-16" target="znJoUbE5T9GirrZoyCfJ-14">
          <mxGeometry width="50" height="50" relative="1" as="geometry">
            <mxPoint x="505" y="600" as="sourcePoint" />
            <mxPoint x="555" y="550" as="targetPoint" />
          </mxGeometry>
        </mxCell>
        <mxCell id="znJoUbE5T9GirrZoyCfJ-52" value="1,n" style="edgeLabel;html=1;align=center;verticalAlign=middle;resizable=0;points=[];" vertex="1" connectable="0" parent="znJoUbE5T9GirrZoyCfJ-18">
          <mxGeometry x="0.1021" y="1" relative="1" as="geometry">
            <mxPoint as="offset" />
          </mxGeometry>
        </mxCell>
        <mxCell id="znJoUbE5T9GirrZoyCfJ-19" value="" style="endArrow=none;html=1;rounded=0;" edge="1" parent="1" source="znJoUbE5T9GirrZoyCfJ-74" target="znJoUbE5T9GirrZoyCfJ-16">
          <mxGeometry width="50" height="50" relative="1" as="geometry">
            <mxPoint x="584" y="520" as="sourcePoint" />
            <mxPoint x="655" y="510" as="targetPoint" />
          </mxGeometry>
        </mxCell>
        <mxCell id="znJoUbE5T9GirrZoyCfJ-53" value="0,n" style="edgeLabel;html=1;align=center;verticalAlign=middle;resizable=0;points=[];" vertex="1" connectable="0" parent="znJoUbE5T9GirrZoyCfJ-19">
          <mxGeometry x="0.3028" relative="1" as="geometry">
            <mxPoint as="offset" />
          </mxGeometry>
        </mxCell>
        <mxCell id="znJoUbE5T9GirrZoyCfJ-20" value="lingua" style="ellipse;whiteSpace=wrap;html=1;" vertex="1" parent="1">
          <mxGeometry x="120.87" y="445" width="62" height="25" as="geometry" />
        </mxCell>
        <mxCell id="znJoUbE5T9GirrZoyCfJ-21" value="" style="endArrow=none;html=1;rounded=0;" edge="1" parent="1" source="znJoUbE5T9GirrZoyCfJ-20" target="yUyOMXH7IsfFj7a0Xzgd-1">
          <mxGeometry width="50" height="50" relative="1" as="geometry">
            <mxPoint x="-35" y="310" as="sourcePoint" />
            <mxPoint x="15" y="260" as="targetPoint" />
          </mxGeometry>
        </mxCell>
        <mxCell id="znJoUbE5T9GirrZoyCfJ-22" value="" style="endArrow=none;html=1;rounded=0;" edge="1" parent="1" target="znJoUbE5T9GirrZoyCfJ-23" source="yUyOMXH7IsfFj7a0Xzgd-3">
          <mxGeometry width="50" height="50" relative="1" as="geometry">
            <mxPoint x="220" y="773.6104390739217" as="sourcePoint" />
            <mxPoint x="893.5" y="666.62" as="targetPoint" />
          </mxGeometry>
        </mxCell>
        <mxCell id="znJoUbE5T9GirrZoyCfJ-23" value="dataDiNascita" style="ellipse;whiteSpace=wrap;html=1;" vertex="1" parent="1">
          <mxGeometry x="348.5" y="816.62" width="106.5" height="20" as="geometry" />
        </mxCell>
        <mxCell id="znJoUbE5T9GirrZoyCfJ-24" value="" style="endArrow=none;html=1;rounded=0;" edge="1" parent="1" target="znJoUbE5T9GirrZoyCfJ-25" source="yUyOMXH7IsfFj7a0Xzgd-3">
          <mxGeometry width="50" height="50" relative="1" as="geometry">
            <mxPoint x="15" y="814.5433196966109" as="sourcePoint" />
            <mxPoint x="613.5" y="660" as="targetPoint" />
          </mxGeometry>
        </mxCell>
        <mxCell id="znJoUbE5T9GirrZoyCfJ-25" value="LuogoDiNascita" style="ellipse;whiteSpace=wrap;html=1;" vertex="1" parent="1">
          <mxGeometry x="95" y="810" width="106.5" height="20" as="geometry" />
        </mxCell>
        <mxCell id="znJoUbE5T9GirrZoyCfJ-26" value="Utente" style="whiteSpace=wrap;html=1;aspect=fixed;" vertex="1" parent="1">
          <mxGeometry x="544" y="919.12" width="80" height="80" as="geometry" />
        </mxCell>
        <mxCell id="znJoUbE5T9GirrZoyCfJ-27" value="" style="endArrow=none;html=1;rounded=0;" edge="1" parent="1" source="znJoUbE5T9GirrZoyCfJ-26" target="znJoUbE5T9GirrZoyCfJ-28">
          <mxGeometry width="50" height="50" relative="1" as="geometry">
            <mxPoint x="659" y="1062.5" as="sourcePoint" />
            <mxPoint x="709" y="1012.5" as="targetPoint" />
          </mxGeometry>
        </mxCell>
        <mxCell id="znJoUbE5T9GirrZoyCfJ-28" value="&lt;u&gt;&lt;i&gt;telefono&lt;/i&gt;&lt;/u&gt;" style="ellipse;whiteSpace=wrap;html=1;" vertex="1" parent="1">
          <mxGeometry x="495" y="1040" width="65" height="30" as="geometry" />
        </mxCell>
        <mxCell id="znJoUbE5T9GirrZoyCfJ-29" value="&lt;i&gt;&lt;u&gt;n&lt;span style=&quot;background-color: initial;&quot;&gt;ome&lt;/span&gt;&lt;/u&gt;&lt;/i&gt;" style="ellipse;whiteSpace=wrap;html=1;" vertex="1" parent="1">
          <mxGeometry x="585" y="1040" width="65" height="30" as="geometry" />
        </mxCell>
        <mxCell id="znJoUbE5T9GirrZoyCfJ-30" value="" style="endArrow=none;html=1;rounded=0;" edge="1" parent="1" source="znJoUbE5T9GirrZoyCfJ-26" target="znJoUbE5T9GirrZoyCfJ-29">
          <mxGeometry width="50" height="50" relative="1" as="geometry">
            <mxPoint x="659" y="1132.5" as="sourcePoint" />
            <mxPoint x="709" y="1082.5" as="targetPoint" />
          </mxGeometry>
        </mxCell>
        <mxCell id="znJoUbE5T9GirrZoyCfJ-31" value="" style="endArrow=none;html=1;rounded=0;" edge="1" parent="1" source="znJoUbE5T9GirrZoyCfJ-26" target="znJoUbE5T9GirrZoyCfJ-32">
          <mxGeometry width="50" height="50" relative="1" as="geometry">
            <mxPoint x="629" y="1182.5" as="sourcePoint" />
            <mxPoint x="513.9893375635609" y="1009.8571053757387" as="targetPoint" />
          </mxGeometry>
        </mxCell>
        <mxCell id="znJoUbE5T9GirrZoyCfJ-32" value="&lt;i&gt;cognome&lt;/i&gt;" style="ellipse;whiteSpace=wrap;html=1;" vertex="1" parent="1">
          <mxGeometry x="462" y="999.1199999999999" width="65" height="30" as="geometry" />
        </mxCell>
        <mxCell id="znJoUbE5T9GirrZoyCfJ-33" value="" style="endArrow=none;html=1;rounded=0;" edge="1" parent="1" source="znJoUbE5T9GirrZoyCfJ-34" target="znJoUbE5T9GirrZoyCfJ-74">
          <mxGeometry width="50" height="50" relative="1" as="geometry">
            <mxPoint x="579" y="632.5" as="sourcePoint" />
            <mxPoint x="584" y="570" as="targetPoint" />
          </mxGeometry>
        </mxCell>
        <mxCell id="znJoUbE5T9GirrZoyCfJ-56" value="1,1" style="edgeLabel;html=1;align=center;verticalAlign=middle;resizable=0;points=[];" vertex="1" connectable="0" parent="znJoUbE5T9GirrZoyCfJ-33">
          <mxGeometry x="0.2865" y="1" relative="1" as="geometry">
            <mxPoint as="offset" />
          </mxGeometry>
        </mxCell>
        <mxCell id="znJoUbE5T9GirrZoyCfJ-34" value="Prestito" style="whiteSpace=wrap;html=1;aspect=fixed;" vertex="1" parent="1">
          <mxGeometry x="546.5" y="635" width="75" height="75" as="geometry" />
        </mxCell>
        <mxCell id="znJoUbE5T9GirrZoyCfJ-35" value="dataInizio" style="ellipse;whiteSpace=wrap;html=1;" vertex="1" parent="1">
          <mxGeometry x="659" y="625" width="70" height="35" as="geometry" />
        </mxCell>
        <mxCell id="znJoUbE5T9GirrZoyCfJ-36" value="dataFine" style="ellipse;whiteSpace=wrap;html=1;" vertex="1" parent="1">
          <mxGeometry x="659" y="675" width="70" height="35" as="geometry" />
        </mxCell>
        <mxCell id="znJoUbE5T9GirrZoyCfJ-37" value="" style="endArrow=none;html=1;rounded=0;" edge="1" parent="1" source="znJoUbE5T9GirrZoyCfJ-34" target="znJoUbE5T9GirrZoyCfJ-36">
          <mxGeometry width="50" height="50" relative="1" as="geometry">
            <mxPoint x="589" y="812.5" as="sourcePoint" />
            <mxPoint x="639" y="762.5" as="targetPoint" />
          </mxGeometry>
        </mxCell>
        <mxCell id="znJoUbE5T9GirrZoyCfJ-38" value="" style="endArrow=none;html=1;rounded=0;" edge="1" parent="1" source="znJoUbE5T9GirrZoyCfJ-34" target="znJoUbE5T9GirrZoyCfJ-35">
          <mxGeometry width="50" height="50" relative="1" as="geometry">
            <mxPoint x="609" y="822.5" as="sourcePoint" />
            <mxPoint x="659" y="772.5" as="targetPoint" />
          </mxGeometry>
        </mxCell>
        <mxCell id="znJoUbE5T9GirrZoyCfJ-39" value="&lt;i&gt;&lt;u&gt;collocazione&lt;/u&gt;&lt;/i&gt;" style="ellipse;whiteSpace=wrap;html=1;" vertex="1" parent="1">
          <mxGeometry x="659.75" y="407.5" width="80" height="25" as="geometry" />
        </mxCell>
        <mxCell id="znJoUbE5T9GirrZoyCfJ-40" value="" style="endArrow=none;html=1;rounded=0;" edge="1" parent="1" source="znJoUbE5T9GirrZoyCfJ-16" target="znJoUbE5T9GirrZoyCfJ-39">
          <mxGeometry width="50" height="50" relative="1" as="geometry">
            <mxPoint x="595" y="550" as="sourcePoint" />
            <mxPoint x="575" y="343" as="targetPoint" />
          </mxGeometry>
        </mxCell>
        <mxCell id="znJoUbE5T9GirrZoyCfJ-45" value="" style="endArrow=none;html=1;rounded=0;" edge="1" parent="1" source="znJoUbE5T9GirrZoyCfJ-75" target="znJoUbE5T9GirrZoyCfJ-34">
          <mxGeometry width="50" height="50" relative="1" as="geometry">
            <mxPoint x="584" y="782.5" as="sourcePoint" />
            <mxPoint x="586.5" y="652.5" as="targetPoint" />
          </mxGeometry>
        </mxCell>
        <mxCell id="znJoUbE5T9GirrZoyCfJ-55" value="1,1" style="edgeLabel;html=1;align=center;verticalAlign=middle;resizable=0;points=[];" vertex="1" connectable="0" parent="znJoUbE5T9GirrZoyCfJ-45">
          <mxGeometry x="0.0254" y="2" relative="1" as="geometry">
            <mxPoint as="offset" />
          </mxGeometry>
        </mxCell>
        <mxCell id="znJoUbE5T9GirrZoyCfJ-46" value="" style="endArrow=none;html=1;rounded=0;" edge="1" parent="1" target="znJoUbE5T9GirrZoyCfJ-75" source="znJoUbE5T9GirrZoyCfJ-26">
          <mxGeometry width="50" height="50" relative="1" as="geometry">
            <mxPoint x="582.5810810810813" y="975" as="sourcePoint" />
            <mxPoint x="584" y="832.5" as="targetPoint" />
          </mxGeometry>
        </mxCell>
        <mxCell id="znJoUbE5T9GirrZoyCfJ-54" value="0,n" style="edgeLabel;html=1;align=center;verticalAlign=middle;resizable=0;points=[];" vertex="1" connectable="0" parent="znJoUbE5T9GirrZoyCfJ-46">
          <mxGeometry x="-0.0414" y="2" relative="1" as="geometry">
            <mxPoint as="offset" />
          </mxGeometry>
        </mxCell>
        <mxCell id="znJoUbE5T9GirrZoyCfJ-57" value="" style="endArrow=none;html=1;rounded=0;" edge="1" parent="1" source="znJoUbE5T9GirrZoyCfJ-59" target="yUyOMXH7IsfFj7a0Xzgd-1">
          <mxGeometry width="50" height="50" relative="1" as="geometry">
            <mxPoint x="55" y="420" as="sourcePoint" />
            <mxPoint x="45" y="440" as="targetPoint" />
          </mxGeometry>
        </mxCell>
        <mxCell id="znJoUbE5T9GirrZoyCfJ-62" value="1,n" style="edgeLabel;html=1;align=center;verticalAlign=middle;resizable=0;points=[];" vertex="1" connectable="0" parent="znJoUbE5T9GirrZoyCfJ-57">
          <mxGeometry x="-0.0915" y="-1" relative="1" as="geometry">
            <mxPoint as="offset" />
          </mxGeometry>
        </mxCell>
        <mxCell id="znJoUbE5T9GirrZoyCfJ-59" value="raggruppamento" style="rhombus;whiteSpace=wrap;html=1;" vertex="1" parent="1">
          <mxGeometry x="539" y="274.5" width="130" height="38" as="geometry" />
        </mxCell>
        <mxCell id="znJoUbE5T9GirrZoyCfJ-60" value="" style="endArrow=none;html=1;rounded=0;" edge="1" parent="1" source="znJoUbE5T9GirrZoyCfJ-61" target="znJoUbE5T9GirrZoyCfJ-59">
          <mxGeometry width="50" height="50" relative="1" as="geometry">
            <mxPoint x="-486" y="455" as="sourcePoint" />
            <mxPoint x="-486" y="455" as="targetPoint" />
          </mxGeometry>
        </mxCell>
        <mxCell id="znJoUbE5T9GirrZoyCfJ-63" value="1,n" style="edgeLabel;html=1;align=center;verticalAlign=middle;resizable=0;points=[];" vertex="1" connectable="0" parent="znJoUbE5T9GirrZoyCfJ-60">
          <mxGeometry x="0.0674" y="1" relative="1" as="geometry">
            <mxPoint as="offset" />
          </mxGeometry>
        </mxCell>
        <mxCell id="znJoUbE5T9GirrZoyCfJ-61" value="Collezione" style="rounded=0;whiteSpace=wrap;html=1;" vertex="1" parent="1">
          <mxGeometry x="564" y="133" width="80" height="75" as="geometry" />
        </mxCell>
        <mxCell id="znJoUbE5T9GirrZoyCfJ-64" value="&lt;i&gt;&lt;u&gt;nome&lt;/u&gt;&lt;/i&gt;" style="ellipse;whiteSpace=wrap;html=1;" vertex="1" parent="1">
          <mxGeometry x="574" y="85" width="60" height="28" as="geometry" />
        </mxCell>
        <mxCell id="znJoUbE5T9GirrZoyCfJ-65" value="" style="endArrow=none;html=1;rounded=0;" edge="1" parent="1" source="znJoUbE5T9GirrZoyCfJ-61" target="znJoUbE5T9GirrZoyCfJ-64">
          <mxGeometry width="50" height="50" relative="1" as="geometry">
            <mxPoint x="-676" y="435" as="sourcePoint" />
            <mxPoint x="-626" y="385" as="targetPoint" />
          </mxGeometry>
        </mxCell>
        <mxCell id="znJoUbE5T9GirrZoyCfJ-66" value="" style="endArrow=none;html=1;rounded=0;" edge="1" parent="1" target="znJoUbE5T9GirrZoyCfJ-67" source="znJoUbE5T9GirrZoyCfJ-26">
          <mxGeometry width="50" height="50" relative="1" as="geometry">
            <mxPoint x="579" y="974.8800000000001" as="sourcePoint" />
            <mxPoint x="1167.5" y="862.5" as="targetPoint" />
          </mxGeometry>
        </mxCell>
        <mxCell id="znJoUbE5T9GirrZoyCfJ-67" value="&lt;i&gt;&lt;u&gt;dataDiNascita&lt;/u&gt;&lt;/i&gt;" style="ellipse;whiteSpace=wrap;html=1;" vertex="1" parent="1">
          <mxGeometry x="633.25" y="1004.1199999999999" width="106.5" height="20" as="geometry" />
        </mxCell>
        <mxCell id="znJoUbE5T9GirrZoyCfJ-72" value="n.copie" style="ellipse;whiteSpace=wrap;html=1;" vertex="1" parent="1">
          <mxGeometry x="460" y="660" width="55" height="25" as="geometry" />
        </mxCell>
        <mxCell id="znJoUbE5T9GirrZoyCfJ-73" value="" style="endArrow=none;html=1;rounded=0;" edge="1" parent="1" source="znJoUbE5T9GirrZoyCfJ-34" target="znJoUbE5T9GirrZoyCfJ-72">
          <mxGeometry width="50" height="50" relative="1" as="geometry">
            <mxPoint x="395" y="700" as="sourcePoint" />
            <mxPoint x="445" y="650" as="targetPoint" />
          </mxGeometry>
        </mxCell>
        <mxCell id="znJoUbE5T9GirrZoyCfJ-74" value="oggetto" style="shape=rhombus;double=1;perimeter=rhombusPerimeter;whiteSpace=wrap;html=1;align=center;" vertex="1" parent="1">
          <mxGeometry x="534" y="520" width="100" height="45" as="geometry" />
        </mxCell>
        <mxCell id="znJoUbE5T9GirrZoyCfJ-75" value="soggetto" style="shape=rhombus;double=1;perimeter=rhombusPerimeter;whiteSpace=wrap;html=1;align=center;" vertex="1" parent="1">
          <mxGeometry x="534" y="785" width="100" height="45" as="geometry" />
        </mxCell>
      </root>
    </mxGraphModel>
  </diagram>
</mxfile>
